<svg id="XMLID_528_" xmlns="http://www.w3.org/2000/svg" width="108.754" height="90.278" viewBox="0 0 108.754 90.278">
  <path id="XMLID_850_" d="M47,22.9Z" transform="translate(44.452 -0.408)" fill="#a7a9ac"/>
  <path id="XMLID_849_" d="M46.9,22.8Z" transform="translate(44.305 -0.555)" fill="#a7a9ac"/>
  <path id="XMLID_847_" d="M89.679,50.922A34.028,34.028,0,0,1,56.558,85.279C38.021,85.526,22.449,70.7,22.2,52.158a33.744,33.744,0,1,1,67.477-1.236Z" transform="translate(7.953 -7.915)" fill="#ffc107"/>
  <path id="XMLID_541_" d="M84.515,39.568Zm.247.742ZM70.673,36.6s-5.932-5.932-1.73-5.932v-.247c-.247,0,0,0,0,.247,0-.247-.989,0-1.483,0-.247,0,.247-.247,0-.247v-.247c.247,0,.247,0,0-.247,0,0,.989-.742,1.236-.247,0-.247-.247-.247,0-.247,0-.494-3.213-3.46-5.438-5.191,0,0,0,.247-.247,0a3.822,3.822,0,0,0-1.483-.742c.247,0,0-.247,0-.247,3.46.742,5.685-3.46,8.4-2.225a.242.242,0,0,1,.247.247h0l.247.247c-.247-.494,9.392,6.179,8.4,7.662h0a.242.242,0,0,1-.247.247c.247.247.247.247,0,.247.742.247.494,0,.247,0,1.236.247.989,1.236.989,1.73,0-.494-3.46.247-.247.742C73.639,30.918,72.651,34.872,70.673,36.6ZM68.7,29.187Zm0,.494ZM67.954,32.4Zm.247-.989Zm.494-.247Zm-.247.989Zm.247-.494c.742.494-.494-.741,0,0Zm9.392-2.472Zm-.494,1.73c.494-.247-.494,0,0,0Zm.247.247c.494-.247-.494,0,0,0Zm.247-1.73Zm1.483,2.225Zm-.494-2.225Zm-1.483,1.483Zm1.483-1.73Zm-10.628,0c.247,0-.247-.247,0,0ZM32.115,31.412l.247-.247Zm-6.426,1.977c.741,0-1.236-.247,0,0Zm6.921-2.225Zm17.055-8.157c.247.494,0-.247,0,0Zm.494.494c.247,0,.247-.247,0,0h0c-.247-.247-.494,0-.247,0Zm0,0Zm-.247-1.977Zm0,0Zm.247-.247Zm-.494-.247c1.73.989,1.977.989,0,0Zm0,0ZM61.528,35.119c.247.247.247,0,0,0ZM49.664,22.514Zm1.236-.247c.247,0-.247-.247-.494-.247A.863.863,0,0,0,50.9,22.267Zm.989-1.73Zm7.168,3.955h0C58.809,24.738,59.056,24.738,59.056,24.491ZM55.843,50.938ZM51.394,23.255c.247,0-.742-.247,0,0Zm0,.494Zm-.494-.494Zm-.494,0c-1.236.247,3.46-.989,0,0Zm.989,0h0C50.653,23.255,51.641,23.5,51.394,23.255Zm13.594-2.225H64C65.236,21.278,64,20.784,64.988,21.031Zm-7.662-.989ZM55.1,19.548h0Zm4.2.989Zm.247.247Zm-6.674-.247c-.742-1.236,3.955-.247,5.438.989,0-.247-.989-.494-.247-.494-.247,0-.247-.247,0-.247-.494,0-.247,0,.247-.247-1.977.494-2.472-.989-3.213-.989.494,0,.247,0,0-.247l-.247-.247c.494.247,11.617-1.236,11.37.989v.247c0,.494-2.472.247-2.966.247.247,0,.494,0,.494.247-1.73,0-2.472,1.236-4.2,1.236-.247,0,.494.247.247,0,1.236.742-2.225,2.966-4.943,1.483v-.494c0-.989,1.483,0,1.977-.247h-.247c-.247,0,0,0,.247-.247-.247,0-.989-.247-.989-.494-.989.494-2.224-.247-2.966-1.483ZM60.787,19.3Zm-3.46,0c-.247,0,0,.247,0,0Zm0,.741h0C56.338,20.042,56.832,20.536,57.326,20.042Zm2.719,2.225Zm-.494,0Zm0-1.483h0c0-.247.247-.247,0,0,0-.247-.247-.247,0,0h0a.766.766,0,0,0-.494.247C58.315,21.031,59.056,20.784,59.551,20.784ZM58.068,23.5c.247,0,0-.247,0,0Zm-.989-.247Zm0-.742Zm-.247-.494c-.247,0,.247-.247,0,0Zm2.225-1.236Zm-4.2,2.472Zm-4.449,5.191Zm5.685,2.472a.242.242,0,0,0,.247.247C56.585,31.165,56.09,31.165,56.09,30.918ZM46.2,21.525c.247,0-.494.247,0,0Zm14.83,12.358c0-.247-.247-.247,0,0ZM46.945,22.019c-1.483-.494,1.977.494,0,0Zm2.966,6.674h0C49.664,28.446,49.664,28.693,49.911,28.693ZM61.528,24h0Zm-3.213,5.685a.242.242,0,0,0,.247-.247h0c0-.247,0,0-.247.247h0C58.315,29.435,58.068,29.682,58.315,29.682Zm-.989,22.739ZM85.009,41.793Zm-.494-1.483ZM55.6,41.793s-.494-.247-.494,0C55.349,41.793,55.6,42.04,55.6,41.793Zm-2.719,39.3h0C52.877,81.34,52.63,81.093,52.877,81.093Zm.494-3.46Zm0,4.2-.494-.247ZM59.551,53.9c1.236.247.247,0,0,0Zm0,0Zm-2.966-1.236c-4.2-2.225-2.225-.989,0,0Zm0,0Zm-2.719-1.483Zm28.671-8.651Zm1.73-2.719Zm.742,2.225c0,1.236.494,2.225,0,0ZM79.324,29.187ZM85.5,49.949c-1.977,1.73.494-2.719.247-5.685-.247.247-.494-.247-.742-.247s-.742.247-.494.247c0,2.225-2.225,5.685-5.438,9.64-.989.989-.742,2.966-.989,3.955C74.628,68.487,88.964,46.736,85.5,49.949ZM32.115,31.412l.247-.247A.242.242,0,0,0,32.115,31.412ZM26.925,48.466h0C27.419,48.714,26.677,48.466,26.925,48.466Zm3.46-16.56c.247.494-.494-.494,0,0Zm-4.7,1.236c.741,0-1.236-.247,0,0Zm-.989.494Zm0,0Zm13.1,2.472Zm0,0c-1.236-.494-.742-.247,0,0ZM49.911,23.75ZM61.775,34.872Zm-11.123-13.1c-.247,0,0,.247.494.247A.863.863,0,0,0,50.653,21.772ZM63.011,34.625ZM59.056,24.491Zm-6.674-2.966ZM54.855,23.5Zm-4.449,4.7c.494,0-.247.247,0,0Zm2.719-4.449Zm-2.719,1.483c-1.977.742,2.472,1.73,1.73.742C51.641,24.985,51.394,24.985,50.405,25.233Zm7.168,8.157h0C57.079,33.142,58.068,33.389,57.573,33.389Zm-3.955-9.145Zm2.472,6.921h0C55.843,30.918,55.843,31.165,56.09,31.165Zm.742,1.73c0,.247,0,.247-.247.247-.247.247-.494.247,0,0h0c.247,0,.494-.247.741-.494a3.555,3.555,0,0,0-.741.494A.242.242,0,0,1,56.832,32.895ZM54.607,24a12.236,12.236,0,0,0,3.46.742A26.267,26.267,0,0,0,54.607,24H54.36c.247-.247.247-.247.247,0Zm4.2.742Zm-6.179-1.73a8.368,8.368,0,0,1,1.977.742,4.349,4.349,0,0,0-1.483-.247l-.494-.494Zm.989.494Zm4.449,1.236h0ZM45.709,22.514Zm3.46.742c-1.483-.742-1.977-.247-3.46-.742h-.247s-2.472-.494-2.472-.247a20.152,20.152,0,0,0,2.472.247C42,23.008,49.664,23.5,49.17,23.255Zm9.145,9.64ZM45.956,22.019c-.247,0,0,0,.247.247C46.451,22.267,46.2,22.019,45.956,22.019Zm16.066,1.73h0Zm-3.708,5.685Zm-.742,22.739Zm8.9-10.134Zm0,0Zm12.606-6.674c0,.247,2.472.494,2.966,0,1.236-1.73-1.977-.989-1.977-.989C78.088,32.895,79.077,35.119,79.077,35.367Zm5.932,6.179Zm-.247-1.73Zm-.247.247Zm-30.9,37.322c-.494,0,.494.247,0,0ZM26.677,32.895Zm35.839,9.392ZM39.283,26.468ZM63.258,42.534c-.247-.247-.494-.247-.989-.247C62.517,42.782,62.764,43.029,63.258,42.534ZM57.821,28.94ZM70.426,64.285c2.225,6.426-16.313,12.358-15.077,17.8-1.236,0-1.236.247-2.225-.494.247.247,0-.494,0-.989h0l.247-.247s-.247-.247,0-.247c0-.247-.247,0-.247,0h0c0,.247,0,.247-.247.247h0v-.494h0c-.742-.742,1.977-1.977,1.483-3.213,2.472.247-.989-20.021.247-19.773-1.977-.494-10.628-4.943-11.123-9.392,0,0-.247-1.236-.742-.989,0,.742,1.977,3.213,1.483,3.708.247-.247-5.191-12.111-6.426-15.324v.494s-.247-.494-.247,0v-.247c.247,0-.247-1.236,0-1.73-.247.494,0,.742-.247,1.236.247-.247,0-.989-.247-1.483h0v.247h0v.989c-.989-1.483-5.438-3.46-5.685-3.46-.989.494-2.719,3.213-3.955,2.719,0-.247,0-.247-.247,0h0a.766.766,0,0,0-.494.247A5.183,5.183,0,0,0,28.655,32.4v-.247c-.247,0-.494-.247-.247-.247-1.73-.494-3.955-1.483-.742-3.46.742.742,5.932-.989,10.875-1.236h0c3.708-.247,7.415,0,9.145,2.472v.247h0c-.247-.742-.494-1.236.742-1.236-.494-.247-7.168-1.483-2.472-1.236-.989-.247-3.46-.989-1.483-1.977-1.977.494-1.483.494-3.213.247.247,0,.247-.247,0-.247.247,0,.989-1.483.742-1.483.247,0,.247,0,0-.247,1.483,0,6.426,1.483,7.168,1.483,0,.741-.247,2.719.989,2.966-1.236-.247.742.742-1.73.247,2.225,1.73,2.472.247,2.472.247.247,0,.247,0,0-.247a.532.532,0,0,0,.494-.494c.741-.494.494,1.73.494,1.73h.247c-.247-.494.247-.494.742-.742-1.483.742.247-3.46,0-3.708.247.247.247-.247,0-.247.247,0,1.73.247,1.73.494-.247,0-.247.247,0,.247-.494,2.719-.989,1.977.247,3.708-1.73,1.73.742,5.685,1.483,8.651h0v.494h0v.494c.247,0,.247,0,.494.247l.247-.247a3.044,3.044,0,0,1,.494-2.472h0a4.458,4.458,0,0,0,.742-2.966c0,.247,5.932,3.46,4.943,1.483.494,1.73,3.708,6.674,3.46,6.674-.494.247,0,.247,0,.247h0a.242.242,0,0,0-.247.247c-.247,0-.494,0-.494.247,0,0,.494-.247,0-.247,0,0-1.236-.247-1.483-.247-.742-.742.494.494,0-.247a7.692,7.692,0,0,0,.989-1.483,9.969,9.969,0,0,1-2.719,0,.242.242,0,0,1,.247.247l-.247-.247a3.45,3.45,0,0,0-2.225.742c1.483-.989,1.73.247,1.977.989h0c-3.708-.742-4.449,6.426-7.662,8.4-1.236.989-1.977.742-2.472.247v.742c.989,5.685,2.719,1.73,5.438,4.2,0,0-.742,1.236-.247,1.236.989,0,10.875,2.224,12.853,7.415ZM60.292,41.3Zm-6.426,1.483Zm1.73.494c-1.73.494,1.73-.742,0,0Zm1.236,3.213Zm.247-.247Zm.494-1.483c0,.247.247-.247,0,0Zm-.247.989c.247-.989,0-.742,0,0Zm-.742-2.719Zm-1.236-1.483c-2.225-.494,2.719,1.73,0,0Zm-2.472-9.64Zm-16.56.989Zm.989.989Zm0,0ZM39.777,37.1Zm.742,1.483c.742.494-1.236-.989,0,0Zm4.943-6.426c0-.247-2.719.742,0,0Zm1.977-3.213Zm.247-.494Zm2.719,9.145h0C49.417,35.861,50.653,38.58,50.405,37.591Zm.247.742c-.247-.742-.247.742,0,0Zm3.955,18.043ZM53.124,78.868Zm0,1.483Zm.247.742c0,.247.247-.494,0,0Zm.742.494ZM64.247,61.566c0,.247.247,0,0,0Zm.247-.247ZM52.877,80.1ZM49.17,24.738ZM38.541,26.716Zm.494-.494c-.247,0-.494.247,0,0Zm25.705,5.438Zm-6.426-4.943Zm-1.483,1.977a1.486,1.486,0,0,0-.989.247c-1.236-1.236-1.977-2.225.494-2.966l.247.247c-.494.247-.989.742-.494.989,1.73,0,8.4.989,8.651,4.449v.247l-.494.247c-.494,0,0,0-.247.247,0,0-.741.247-.494.494,0-.247-.989-1.236-.989-1.236v.247c.989.247.742,1.977.742,1.977-.247-.247-.247,0,0,.247-.989-.742-1.483-.494-.742.247a30.06,30.06,0,0,0-4.2-1.977c-.247-.494.494-.989.989-1.483h0c.247-.494.494-.742,0-1.236h0a8.368,8.368,0,0,0-1.977-.741C57.573,28.693,57.079,28.693,56.832,28.693Zm4.449.247Zm.494,4.449c.247.247,0-.247,0,0Zm-.494-4.7Zm-.247-.247Zm-4.943,0Zm.247-.989c-.247,0,.494.247,0,0Zm7.415,15.324c.247-.247-.247,0,0,0,.247-.247-.247-.247,0-.494V42.04l-.247.247c0,.247,0,.247.247.494ZM56.338,25.974Zm-.989,3.955c-.247.247.247-.989,0,0,.247-.494.494-.494.741-.742l-.247-.247c-.494.247-.989.247-1.236.741,0,.247.247.247.494.494A.242.242,0,0,1,55.349,29.929Zm2.966-3.213ZM62.27,42.534ZM59.8,27.7ZM55.349,41.546ZM54.113,30.918c.494.741.247,0,0,0Zm6.921-2.472ZM50.405,37.591Zm9.64,16.066Zm0,0c-.247-.247-.494-.247,0,0Zm-1.236-.494Zm0,0c-.989-.247-2.966-.989,0,0Zm-2.966,0c.494.247-.742-.742,0,0ZM67.954,29.187ZM62.022,23.75h0ZM84.515,39.568Z" transform="translate(11.634 -6.448)" fill="#fff"/>
  <path id="XMLID_473_" d="M44.351,59.164l-8.4-7.909V45.817L51.519,56.939c4.2,3.708,8.651-3.46,4.2-6.674L40.643,36.177A7.362,7.362,0,0,0,36.194,34.2H22.6A33.323,33.323,0,0,0,44.351,59.164Z" transform="translate(8.543 16.222)" fill="#231f20" opacity="0.3"/>
  <path id="XMLID_540_" d="M45.536,36.377,60.613,50.466c4.449,3.46-.247,10.628-4.2,6.674L40.839,46.017v5.438L53.692,63.319s10.381,1.73,11.617,2.225l9.145-4.2a3.765,3.765,0,0,1,2.966,6.921l-11.37,5.191c-.989.494-15.819.247-15.819.247L18.1,58.128V34.4H41.087A7.362,7.362,0,0,1,45.536,36.377Z" transform="translate(1.921 16.517)" fill="#ececec"/>
  <rect id="XMLID_538_" width="21.256" height="37.075" transform="translate(0 42.76)" fill="#df495b"/>
  <path id="XMLID_537_" d="M0,0H21.256V10.134H0Z" transform="translate(0 42.76)" fill="#df495b"/>
  <g id="XMLID_529_" transform="translate(19.279 0)">
    <g id="XMLID_471_" transform="translate(0 34.356)">
      <path id="XMLID_472_" d="M20.272,30.666,17.8,30.172c.247-.989.247-1.73.494-2.472l2.472.494A10.878,10.878,0,0,1,20.272,30.666Z" transform="translate(-17.8 -27.7)" fill="#673ab7"/>
    </g>
    <g id="XMLID_444_" transform="translate(1.977)">
      <path id="XMLID_445_" d="M92.75,90.916l-1.73-1.73a42.964,42.964,0,0,0,3.213-3.708l1.977,1.73C94.975,88.445,93.986,89.681,92.75,90.916Zm6.426-8.157-2.225-1.483c.742-1.483,1.73-2.719,2.472-4.2l2.225.989A28.178,28.178,0,0,1,99.177,82.76Zm4.449-9.392-2.472-.741a32.927,32.927,0,0,0,1.236-4.7l2.472.494A28.91,28.91,0,0,1,103.626,73.368Zm2.225-10.134-2.472-.247a25.42,25.42,0,0,0,.247-4.2V58.29H106.1v.742A25.418,25.418,0,0,1,105.85,63.234ZM103.132,53.1a26.253,26.253,0,0,0-.989-4.7l2.472-.742a38.372,38.372,0,0,1,.989,5.191Zm-82.06-9.145L18.6,42.966a26.786,26.786,0,0,1,1.977-4.7L22.8,39.506C22.308,40.741,21.813,42.472,21.072,43.955Zm79.588-.247a35.016,35.016,0,0,0-1.977-4.449l2.225-1.236c.742,1.483,1.483,3.213,2.225,4.7ZM25.521,35.056,23.3,33.573a47.52,47.52,0,0,1,3.213-4.2l1.977,1.73C27.5,32.585,26.509,33.821,25.521,35.056Zm70.69,0-.247-.247a18.665,18.665,0,0,0-2.719-3.46l1.977-1.73,2.966,3.708.247.494ZM31.947,27.641l-1.73-1.977a45.127,45.127,0,0,1,3.955-3.213l1.483,1.977C34.419,25.417,33.183,26.653,31.947,27.641Zm58.085,0c-1.236-.989-2.472-2.225-3.708-3.213l1.483-1.977c1.483.989,2.719,2.225,3.955,3.213ZM39.856,21.957l-1.236-2.225a27.4,27.4,0,0,1,4.7-2.225l.989,2.472A10.3,10.3,0,0,0,39.856,21.957Zm42.266-.247-4.449-2.225.989-2.472c1.483.742,3.213,1.483,4.7,2.225ZM48.755,18l-.742-2.472a48.065,48.065,0,0,1,4.943-1.236l.494,2.472C51.968,17.26,50.485,17.508,48.755,18Zm24.222,0a25.857,25.857,0,0,0-4.2-.989h-.494l.494-2.472h.494c1.483.247,2.966.742,4.449.989Zm-14.583-1.73L58.147,13.8h5.191l-.247,2.472Z" transform="translate(-18.6 -13.8)" fill="#df495b"/>
    </g>
    <g id="XMLID_442_" transform="translate(68.466 78.352)">
      <path id="XMLID_443_" d="M46.983,49.208,45.5,46.983A13.711,13.711,0,0,0,47.477,45.5l1.483,1.977A6.663,6.663,0,0,1,46.983,49.208Z" transform="translate(-45.5 -45.5)" fill="#673ab7"/>
    </g>
  </g>
</svg>
