<svg id="XMLID_66_" xmlns="http://www.w3.org/2000/svg" width="109.048" height="89.798" viewBox="0 0 109.048 89.798">
  <path id="XMLID_501_" d="M42.513,42.8s3.108,5.021,1.2,8.13c-1.674,3.108-7.651,3.108-7.651,3.108s-3.108-5.021-1.2-8.13C36.536,42.563,42.513,42.8,42.513,42.8Z" transform="translate(25.64 27.974)" fill="#df495b"/>
  <path id="XMLID_299_" d="M51.481,53s-2.63-5.739-6.934-6.456S35.7,50.134,35.7,50.134s2.63,5.739,6.934,6.456C47.177,57.546,51.481,53,51.481,53Z" transform="translate(27.671 33.076)" fill="#df495b"/>
  <path id="XMLID_298_" d="M46.46,38.2s5.26,2.869,5.26,6.456-5.26,6.456-5.26,6.456-5.26-2.869-5.26-6.456C41.439,41.069,46.46,38.2,46.46,38.2Z" transform="translate(35.322 21.577)" fill="#df495b"/>
  <path id="XMLID_297_" d="M59.764,42.849s-5.021-3.587-9.325-2.152c-4.065,1.435-5.739,7.651-5.739,7.651s5.021,3.587,9.325,2.152C58.09,48.827,59.764,42.849,59.764,42.849Z" transform="translate(40.191 24.58)" fill="#df495b"/>
  <path id="XMLID_281_" d="M47.158,31.6s5.978,0,7.651,3.108-1.2,8.13-1.2,8.13-5.978,0-7.651-3.108C44.049,36.86,47.158,31.6,47.158,31.6Z" transform="translate(41.081 12.396)" fill="#df495b"/>
  <path id="XMLID_279_" d="M60.864,30.238s-6.217-.717-9.086,2.63-1.2,9.325-1.2,9.325,6.217.717,9.086-2.63C62.538,36.454,60.864,30.238,60.864,30.238Z" transform="translate(47.699 10.411)" fill="#df495b"/>
  <path id="XMLID_484_" d="M45,25.458s5.021-3.108,8.13-1.2,3.108,7.651,3.108,7.651-5.021,3.108-8.13,1.2C45,31.435,45,25.458,45,25.458Z" transform="translate(40.608 1.323)" fill="#df495b"/>
  <path id="XMLID_481_" d="M55.9,18.8s-5.739,2.63-6.456,6.934,3.587,8.847,3.587,8.847,5.739-2.63,6.456-6.934C60.446,23.1,55.9,18.8,55.9,18.8Z" transform="translate(46.682 -5.41)" fill="#df495b"/>
  <path id="XMLID_478_" d="M27.358,42.8s-3.108,5.021-1.2,8.13c1.674,3.108,7.651,3.108,7.651,3.108s3.108-5.021,1.2-8.13C33.335,42.563,27.358,42.8,27.358,42.8Z" transform="translate(13.537 27.974)" fill="#df495b"/>
  <path id="XMLID_260_" d="M21.7,53s2.63-5.739,6.934-6.456,8.847,3.587,8.847,3.587-2.63,5.739-6.934,6.456C26,57.546,21.7,53,21.7,53Z" transform="translate(8.196 33.076)" fill="#df495b"/>
  <path id="XMLID_74_" d="M23.66,38.2s-5.26,2.869-5.26,6.456,5.26,6.456,5.26,6.456,5.26-2.869,5.26-6.456C28.682,41.069,23.66,38.2,23.66,38.2Z" transform="translate(3.605 21.577)" fill="#df495b"/>
  <path id="XMLID_73_" d="M13,42.849s5.021-3.587,9.325-2.152c4.065,1.435,5.739,7.651,5.739,7.651s-5.021,3.587-9.325,2.152C14.674,48.827,13,42.849,13,42.849Z" transform="translate(-3.907 24.58)" fill="#df495b"/>
  <path id="XMLID_440_" d="M22.656,31.6s-5.978,0-7.651,3.108,1.2,8.13,1.2,8.13,5.978,0,7.651-3.108C25.765,36.86,22.656,31.6,22.656,31.6Z" transform="translate(-1.847 12.396)" fill="#df495b"/>
  <path id="XMLID_437_" d="M9.682,30.238s6.217-.717,9.086,2.63,1.2,9.325,1.2,9.325-6.217.717-9.086-2.63C8.009,36.454,9.682,30.238,9.682,30.238Z" transform="translate(-9.197 10.411)" fill="#df495b"/>
  <path id="XMLID_436_" d="M25.538,25.458s-5.021-3.108-8.13-1.2S14.3,31.913,14.3,31.913s5.021,3.108,8.13,1.2C25.538,31.435,25.538,25.458,25.538,25.458Z" transform="translate(-2.098 1.323)" fill="#df495b"/>
  <path id="XMLID_435_" d="M14.064,18.8s5.739,2.63,6.456,6.934-3.587,8.847-3.587,8.847-5.739-2.63-6.456-6.934C9.521,23.1,14.064,18.8,14.064,18.8Z" transform="translate(-7.601 -5.41)" fill="#df495b"/>
  <g id="XMLID_405_" transform="translate(8.376 10.999)">
    <path id="XMLID_432_" d="M58.848,90.967a45.32,45.32,0,0,1-17.933-3.587A47.834,47.834,0,0,1,26.09,77.338a41.2,41.2,0,0,1-9.8-14.825A46.178,46.178,0,0,1,12.7,44.58a45.32,45.32,0,0,1,3.587-17.933A45.4,45.4,0,0,1,21.069,17.8l3.108,2.152a54.23,54.23,0,0,0-4.543,8.13,42.331,42.331,0,0,0,0,33A46.864,46.864,0,0,0,28.72,74.708,41.272,41.272,0,0,0,42.35,83.794a42.228,42.228,0,0,0,33.236,0,46.864,46.864,0,0,0,13.629-9.086A41.272,41.272,0,0,0,98.3,61.079a42.331,42.331,0,0,0,0-33,34.161,34.161,0,0,0-3.826-7.173l3.108-2.152a41.615,41.615,0,0,1,4.3,7.891,46.178,46.178,0,0,1,3.587,17.933,45.32,45.32,0,0,1-3.587,17.933A47.833,47.833,0,0,1,91.845,77.338,45.2,45.2,0,0,1,77.02,87.381,47.358,47.358,0,0,1,58.848,90.967Z" transform="translate(-12.7 -17.8)" fill="#212121"/>
  </g>
  <path id="XMLID_387_" d="M47.149,13.2S43.562,18.221,45,22.525s7.651,5.739,7.651,5.739,3.587-5.021,2.152-9.325C53.127,14.874,47.149,13.2,47.149,13.2Z" transform="translate(40.133 -13.2)" fill="#df495b"/>
  <path id="XMLID_386_" d="M23.549,13.2s3.587,5.021,2.152,9.325-7.651,5.739-7.651,5.739-3.587-5.021-2.152-9.325C17.571,14.874,23.549,13.2,23.549,13.2Z" transform="translate(-0.348 -13.2)" fill="#df495b"/>
  <g id="XMLID_60_" transform="translate(23.153 17.276)">
    <path id="XMLID_61_" d="M19.3,20.8l22.954,11L36.277,46.146Z" transform="translate(-18.296 -19.903)" fill="#ffa000"/>
    <path id="XMLID_63_" d="M57.415,20.8,34.7,31.8l5.978,14.347Z" transform="translate(3.127 -19.903)" fill="#ffa000"/>
    <path id="XMLID_308_" d="M74.64,54.558h-49.5L18.928,22.039c-.239-.717.478-.956.956-.717L34.948,36.146,49.534,20.6a.448.448,0,0,1,.717,0L63.4,36.146,79.9,21.083c.478-.239,1.2.239.956.717Z" transform="translate(-18.88 -20.425)" fill="#ffc107"/>
    <path id="XMLID_70_" d="M61.689,21.217,45.429,36.042l-13.151-15.3A.835.835,0,0,0,31.8,20.5V54.453H56.667L62.884,21.7C62.884,21.217,62.406,20.739,61.689,21.217Z" transform="translate(-0.907 -20.321)" fill="#ffda6a"/>
    <g id="XMLID_64_" transform="translate(24.915 13.569)">
      <path id="XMLID_310_" d="M31.8,34.469l3.587-3.587L31.8,26.1Z" transform="translate(-25.822 -26.1)" fill="#de5b6b"/>
      <path id="XMLID_312_" d="M33.748,34.469V26.1L30.4,30.882Z" transform="translate(-27.77 -26.1)" fill="#df495b"/>
      <path id="XMLID_313_" d="M31.8,29.6Z" transform="translate(-25.822 -21.231)" fill="#673ab7"/>
      <path id="XMLID_315_" d="M38.017,31.687,35.387,28.1,31.8,31.687Z" transform="translate(-25.822 -23.318)" fill="#df495b"/>
      <path id="XMLID_316_" d="M31.8,29.6Z" transform="translate(-25.822 -21.231)" fill="#673ab7"/>
      <path id="XMLID_322_" d="M31.93,28.1,29.3,31.687h5.978Z" transform="translate(-29.3 -23.318)" fill="#de5b6b"/>
      <path id="XMLID_331_" d="M31.8,29.6h0l3.587,3.348,2.63-3.348Z" transform="translate(-25.822 -21.231)" fill="#de5b6b"/>
      <path id="XMLID_332_" d="M31.8,37.73l3.587-4.782L31.8,29.6Z" transform="translate(-25.822 -21.231)" fill="#df495b"/>
      <path id="XMLID_333_" d="M35.278,29.6H29.3l2.63,3.348Z" transform="translate(-29.3 -21.231)" fill="#df495b"/>
      <path id="XMLID_334_" d="M30.4,32.948l3.348,4.782V29.6Z" transform="translate(-27.77 -21.231)" fill="#de5b6b"/>
    </g>
  </g>
</svg>
